# xmcd
#
# Track frame offsets:
#	150
#	13270
#	24800
#	37695
#	47910
#	59015
#	72015
#	86310
#	97185
#	109810
#	125125
#	137685
#	147320
#	157805
#	169480
#	177890
#	189950
#	201645
#	216215
#	228070
#	239360
#	251300
#	263875
#	275320
#
# Disc length: 3827 seconds
#
# Revision: 0
# Processed by: cddbd v1.5.1PL0 Copyright (c) Steve Scherf et al.
# Submitted via: audiograbber 1.82.02
#
DISCID=530ef118
DTITLE=Rick and Thel Carey - Regal Zonophone and Beyond Volume 1
DYEAR=1900
DGENRE=Country
TTITLE0=She Was Happy Till She Met You - Rick and Thel Carey
TTITLE1=I'll Never Be Fooled Again - Rick and Thel Carey
TTITLE2=Following The Light - Rick and Thel Carey
TTITLE3=Your Kind Of Love - Rick and Thel Carey
TTITLE4=Looking Back To See - Rick and Thel Carey
TTITLE5=It's You With A Broken Heart - Rick and Thel Carey
TTITLE6=The Higway Hobo - Rick and Thel Carey
TTITLE7=I Wasn't There - Rick and Thel Carey
TTITLE8=When Jimmie Rodgers Said Goodbye - Rick and Thel Carey
TTITLE9=The Life Of Hank Williams - Rick and Thel Carey
TTITLE10=You And Me - Rick and Thel Carey
TTITLE11=No One But You - Rick and Thel Carey
TTITLE12=Sunshine - Rick and Thel Carey
TTITLE13=One More Ride - Rick and Thel Carey
TTITLE14=Lets Kiss And Try Again - Rick and Thel Carey
TTITLE15=Rusty Goes Home - Rick and Thel Carey
TTITLE16=Ive Known You From Somewhere - Rick and Thel Carey
TTITLE17=You Can Say That Again - Rick and Thel Carey
TTITLE18=Standing At The End Of My World - Rick and Thel Carey
TTITLE19=Don't Laugh - Rick and Thel Carey
TTITLE20=Don't Leave Your Mother Son - Rick and Thel Carey
TTITLE21=The Night I Stole Old Sammy Morgan's Gin - Rick and Thel Carey
TTITLE22=Somebody's Back In Town - Rick and Thel Carey
TTITLE23=Heaven - Rick and Thel Carey
EXTD=
EXTT0=
EXTT1=
EXTT2=
EXTT3=
EXTT4=
EXTT5=
EXTT6=
EXTT7=
EXTT8=
EXTT9=
EXTT10=
EXTT11=
EXTT12=
EXTT13=
EXTT14=
EXTT15=
EXTT16=
EXTT17=
EXTT18=
EXTT19=
EXTT20=
EXTT21=
EXTT22=
EXTT23=
PLAYORDER=
